<svg xmlns="http://www.w3.org/2000/svg" xmlns:xlink="http://www.w3.org/1999/xlink" width="106.001" height="18" viewBox="0 0 106.001 18"><defs><style>.a{fill:#da291c;}.b{fill:gray;}.c{clip-path:url(#a);}</style><clipPath id="a"><path class="a" d="M9,0l2.7,6.043,6.3.833-4.631,4.567L14.562,18,9,14.78,3.438,18l1.194-6.557L0,6.875l6.3-.833Z" transform="translate(-0.07 0.348)"/></clipPath></defs><g transform="translate(-917 -3225.348)"><path class="a" d="M9,0l2.7,6.043,6.3.833-4.631,4.567L14.562,18,9,14.78,3.438,18l1.194-6.557L0,6.875l6.3-.833Z" transform="translate(917 3225.348)"/><path class="a" d="M9,0l2.7,6.043,6.3.833-4.631,4.567L14.562,18,9,14.78,3.438,18l1.194-6.557L0,6.875l6.3-.833Z" transform="translate(939 3225.348)"/><path class="a" d="M9,0l2.7,6.043,6.3.833-4.631,4.567L14.562,18,9,14.78,3.438,18l1.194-6.557L0,6.875l6.3-.833Z" transform="translate(961 3225.348)"/><path class="a" d="M9,0l2.7,6.043,6.3.833-4.631,4.567L14.562,18,9,14.78,3.438,18l1.194-6.557L0,6.875l6.3-.833Z" transform="translate(983 3225.348)"/><path class="b" d="M9,0l2.7,6.043,6.3.833-4.631,4.567L14.562,18,9,14.78,3.438,18l1.194-6.557L0,6.875l6.3-.833Z" transform="translate(1005 3225.348)"/><g class="c" transform="translate(1005.071 3225)"><rect class="a" width="7.951" height="18.348" transform="translate(0 0)"/></g></g></svg>